# xmcd CD database file
#
# Track frame offsets:
#	150
#	11685
#	22650
#	35320
#	48275
#	61400
#	72595
#	84370
#	98215
#	112870
#	125495
#	140610
#	151070
#	164035
#	180595
#	192245
#	207490
#	219780
#
# Disc length: 3189 seconds
#
# Revision: 0
# Processed by: cddbd v1.5.1PL0 Copyright (c) Steve Scherf et al.
# Submitted via: CDex 1.51
#
DISCID=ee0c7312
DTITLE=Fred Astair - Fascinating Rhythm
DYEAR=1900
DGENRE=Jazz
TTITLE0=Shall we dance
TTITLE1=Fascinating rhythm
TTITLE2=The half-of-it dearis blues
TTITLE3=I'd rather charleston
TTITLE4=Crazy feet
TTITLE5=Not my girl
TTITLE6=Puttin' on the Ritz
TTITLE7=White heat
TTITLE8=Night and day
TTITLE9=I've got you on my mind
TTITLE10=After you - Who?
TTITLE11=The gold diggers' song
TTITLE12=The carioca
TTITLE13=Needle in a haystack
TTITLE14=No strings
TTITLE15=Cheek to cheek
TTITLE16=Top hat, white ties and tails
TTITLE17=Isn't it a lovely day?
EXTD=
EXTT0=
EXTT1=
EXTT2=
EXTT3=
EXTT4=
EXTT5=
EXTT6=
EXTT7=
EXTT8=
EXTT9=
EXTT10=
EXTT11=
EXTT12=
EXTT13=
EXTT14=
EXTT15=
EXTT16=
EXTT17=
PLAYORDER=
